<svg xmlns="http://www.w3.org/2000/svg" width="43" height="49" viewBox="0 0 43 49">
    <path id="manager"
          d="M532.959,2725.76h3.1a15.268,15.268,0,0,0,26.434,4.69h3.982a1.348,1.348,0,0,0,1.338-1.35v-3.34h0.6a2.644,2.644,0,0,0,2.632-2.65v-6.77a2.645,2.645,0,0,0-2.138-2.6,16.662,16.662,0,0,0-6.285-9.87,19.71,19.71,0,0,0-12.066-3.87c-9.268,0-16.578,5.52-18.364,13.8a2.66,2.66,0,0,0-1.865,2.54v6.77A2.645,2.645,0,0,0,532.959,2725.76Zm0.044-2.7v-6.68h2.884a15.5,15.5,0,0,0-.477,6.68H533Zm17.553,10.46a12.706,12.706,0,1,1,10.577-5.77H549.78a1.35,1.35,0,0,0,0,2.7h9A12.559,12.559,0,0,1,550.556,2733.52Zm14.578-5.77H564.22a15.2,15.2,0,0,0,.837-1.99h0.077v1.99h0Zm3.235-4.69H565.7a15.544,15.544,0,0,0-.477-6.68h3.142v6.68h0Zm-17.813-20.37c7.713,0,13.816,4.37,15.584,11h-2a15.26,15.26,0,0,0-27.161,0h-2C536.739,2707.06,542.855,2702.69,550.556,2702.69ZM564.3,2736.8h-27.5a7.739,7.739,0,0,0-7.7,7.76L529,2747.65a1.338,1.338,0,1,0,2.676,0l0.091-3.09a5.049,5.049,0,0,1,5.026-5.06h27.5a5.049,5.049,0,0,1,5.027,5.06l-0.091,3.09a1.338,1.338,0,1,0,2.675,0l0.092-3.09A7.739,7.739,0,0,0,564.3,2736.8Z"
          transform="translate(-529 -2700)"/>
</svg>
