<svg xmlns="http://www.w3.org/2000/svg">
    <symbol id="bookmark" viewBox="0 0 50 50">
        <path d="M5 5c-2.757 0-5 2.243-5 5v29c0 2.757 2.243 5 5 5h16c1.654 0 3 1.346 3 3V10c0-2.757-2.243-5-5-5H5zm26 0c-2.757 0-5 2.243-5 5v37c0-1.654 1.346-3 3-3h16c2.757 0 5-2.243 5-5V10c0-2.757-2.243-5-5-5H31z"/>
    </symbol>
    <symbol id="delete" viewBox="0 0 50 50">
        <path style="text-indent:0;text-align:start;line-height:normal;text-transform:none;block-progression:tb;-inkscape-font-specification:Bitstream Vera Sans"
              d="M21 2c-1.645 0-3 1.355-3 3v2H8a1 1 0 0 0-.094 0A1.001 1.001 0 0 0 8 9h1v36c0 1.654 1.346 3 3 3h26c1.654 0 3-1.346 3-3V9h1a1 1 0 1 0 0-2H32V5c0-1.645-1.355-3-3-3h-8zm0 2h8c.555 0 1 .445 1 1v2H20V5c0-.555.445-1 1-1zm-2 10a1 1 0 0 1 1 1v25a1 1 0 1 1-2 0V15a1 1 0 0 1 1-1zm6 0a1 1 0 0 1 1 1v25a1 1 0 1 1-2 0V15a1 1 0 0 1 1-1zm6 0a1 1 0 0 1 1 1v25a1 1 0 1 1-2 0V15a1 1 0 0 1 1-1z"
              color="#000" overflow="visible" font-family="Bitstream Vera Sans"/>
    </symbol>
    <symbol id="html5" viewBox="0 0 180 240">
        <text x="29.9" y="43.3" fill="#fff" stroke="#fff" stroke-width="0" font-size="38" font-weight="900"
              font-family="sans-serif">HTML
        </text>
        <path fill="#e44d26" d="M149.8 207.4L90 223.7l-59.7-16.3L17 60.4h146"/>
        <path fill="#f16529" stroke="null" d="M90 211.2l48.4-13.3 11-125.6h-60"/>
        <path fill="#ebebeb" stroke="null"
              d="M49 145h41v-18H65.8l-2-18.4h26V90.4h-46l.4 5M90 174l-20.2-5.4-1-14.3H50.3l2.4 28.3L90 193v-19"/>
        <path fill="#fff"
              d="M127.3 127H89.8v18h22.5l-2 23.4-20.6 5.6v19l37.6-10.6.3-3 4.2-47.4.5-5m3-31.5l.3-5h-46v18l44.4.2.3-3.8"/>
    </symbol>
    <symbol id="maket" viewBox="0 0 203 235.6">
        <path class="cls-1" d="M83 76.6L78 1l124 61-62.3 41.6a79.3 79.3 0 1 1-60-27z"/>
    </symbol>
    <symbol id="manager" viewBox="0 0 43 49">
        <path id="manager"
              d="M532.959 2725.76h3.1a15.268 15.268 0 0 0 26.434 4.69h3.982a1.348 1.348 0 0 0 1.338-1.35v-3.34h.6a2.644 2.644 0 0 0 2.632-2.65v-6.77a2.645 2.645 0 0 0-2.138-2.6 16.662 16.662 0 0 0-6.285-9.87 19.71 19.71 0 0 0-12.066-3.87c-9.268 0-16.578 5.52-18.364 13.8a2.66 2.66 0 0 0-1.865 2.54v6.77a2.645 2.645 0 0 0 2.632 2.65zm.044-2.7v-6.68h2.884a15.5 15.5 0 0 0-.477 6.68H533zm17.553 10.46a12.706 12.706 0 1 1 10.577-5.77H549.78a1.35 1.35 0 0 0 0 2.7h9a12.559 12.559 0 0 1-8.224 3.07zm14.578-5.77h-.914a15.2 15.2 0 0 0 .837-1.99h.077v1.99zm3.235-4.69H565.7a15.544 15.544 0 0 0-.477-6.68h3.142v6.68zm-17.813-20.37c7.713 0 13.816 4.37 15.584 11h-2a15.26 15.26 0 0 0-27.161 0h-2c1.76-6.63 7.876-11 15.577-11zm13.744 34.11h-27.5a7.739 7.739 0 0 0-7.7 7.76l-.1 3.09a1.338 1.338 0 1 0 2.676 0l.091-3.09a5.049 5.049 0 0 1 5.026-5.06h27.5a5.049 5.049 0 0 1 5.027 5.06l-.091 3.09a1.338 1.338 0 1 0 2.675 0l.092-3.09a7.739 7.739 0 0 0-7.696-7.76z"
              transform="translate(-529 -2700)"/>
    </symbol>
    <symbol id="set" viewBox="0 0 171.2 185">
        <path class="cls-1" d="M87.4 110.2a52.9 52.9 0 1 1-52.9 52.9 52.9 52.9 0 0 1 52.9-52.9z"
              transform="translate(-34 -31.4)"/>
        <path class="cls-1" d="M170.6.8l-19.1 106.8-83-69.9L170.6.8z"/>
    </symbol>
    <symbol id="this" viewBox="0 0 117.1 85.2">
        <circle cx="58.5" cy="42.6" r="42.1" fill="#ededed" stroke="#1d1d1b" stroke-linecap="round"
                stroke-miterlimit="10"/>
        <path fill="#ea5e5e" d="M0 29.6h117.1v36.08H0z"/>
    </symbol>
</svg>